<?xml version="1.0" encoding="UTF-8" standalone="no"?>
<svg width="147px" height="197px" viewBox="0 0 147 197" version="1.1" xmlns="http://www.w3.org/2000/svg" xmlns:xlink="http://www.w3.org/1999/xlink" xmlns:sketch="http://www.bohemiancoding.com/sketch/ns">
    <!-- Generator: Sketch 3.3 (11970) - http://www.bohemiancoding.com/sketch -->
    <title>Shape-+-Shape-Copy-2-+-Shape-Copy</title>
    <desc>Created with Sketch.</desc>
    <defs></defs>
    <g id="Page-1" stroke="none" stroke-width="1" fill="none" fill-rule="evenodd" sketch:type="MSPage">
        <g id="Shape-+-Shape-Copy-2-+-Shape-Copy" sketch:type="MSLayerGroup" fill="#000000">
            <path d="M73.5,18.375 C80.353875,18.375 91.875,20.76375 91.875,36.75 L91.875,55.125 C91.875,61.1382188 88.9671563,66.4761563 84.5158125,69.8295938 C77.8089375,60.913125 67.1100938,55.125 55.125,55.125 L36.768375,55.125 C18.375,55.125 18.375,41.2978125 18.375,36.75 C18.375,31.2604688 18.375,18.375 36.768375,18.375 L73.5,18.375 L73.5,18.375 Z M73.5,0 L36.768375,0 C18.375,0 0,9.76171875 0,36.75 C0,63.1640625 18.375,73.5 36.768375,73.5 L55.125,73.5 C65.2817812,73.5 73.5,81.7365937 73.5,91.875 C93.7951875,91.875 110.268375,75.4201875 110.268375,55.125 L110.268375,36.75 C110.268375,11.3879063 91.875,0 73.5,0 L73.5,0 Z M119.331844,56.1034688 C119.207812,62.475 117.788344,68.483625 115.275563,73.9685625 C128.519344,76.1735625 128.625,86.9596875 128.625,91.875 C128.625,96.432 128.625,110.25 110.268375,110.25 L91.875,110.25 C79.9082812,110.25 69.1910625,116.028938 62.4841875,124.963781 C58.0328437,121.591969 55.125,116.244844 55.125,110.25 L55.125,91.875 C55.125,88.2413438 55.7727187,85.3794375 56.7741562,83.01825 C56.2366875,82.9217813 55.6992187,82.6875 55.125,82.6875 L37.6825312,82.6875 C37.0899375,85.5310313 36.768375,88.5720938 36.768375,91.875 L36.768375,110.25 C36.768375,130.545188 53.2048125,147 73.5,147 C73.5,136.843219 81.7182188,128.625 91.875,128.625 L110.268375,128.625 C128.625,128.625 147,118.289063 147,91.875 C147,69.3977813 134.224781,58.98375 119.331844,56.1034688 L119.331844,56.1034688 Z" id="Shape" sketch:type="MSShapeGroup"></path>
            <g id="Shape-Copy-2-+-Shape-Copy" transform="translate(42.000000, 158.000000)" sketch:type="MSShapeGroup">
                <path d="M24.4099165,30.0398585 C24.1953854,31.4530239 23.6233022,32.795531 22.7651775,34.0673799 C21.9070529,35.3392287 20.6913762,36.3284445 19.0466372,37.1763437 C17.4018982,38.0242429 15.2565865,38.4481926 12.5391916,38.4481926 C10.965963,38.4481926 9.5357552,38.2362178 8.03403698,37.8122681 C6.60382916,37.3883185 5.31664212,36.7523941 4.17247586,35.8338366 C3.02830961,34.9152791 2.09867452,33.7847468 1.455081,32.3715814 C0.73997709,30.958416 0.453935526,29.2626175 0.453935526,27.284186 L0.453935526,24.1045639 L7.74799542,24.1045639 L7.74799542,25.7297041 C7.74799542,26.5776033 7.81950581,27.4255025 7.96252659,28.2027435 C8.10554737,28.9799845 8.32007855,29.6159089 8.6776305,30.1105168 C9.03518246,30.6051247 9.4642448,31.0290743 10.1078383,31.3823656 C10.6799215,31.6649987 11.4665358,31.8063152 12.4676812,31.8063152 C13.5403371,31.8063152 14.3269514,31.5943404 14.9705449,31.2410491 C15.542628,30.8877577 15.9716904,30.3931499 16.257732,29.7572254 C16.5437735,29.1919593 16.6867943,28.4853766 16.6867943,27.8494522 C16.7583047,27.1428695 16.7583047,26.506945 16.7583047,25.8710206 L16.7583047,1.35260116 L24.8389789,1.35260116 L24.8389789,26.224312 C24.7674685,27.284186 24.6244477,28.6266931 24.4099165,30.0398585 L24.4099165,30.0398585 L24.4099165,30.0398585 Z" id="Shape-Copy-2"></path>
                <path d="M34.2068401,28.6266931 C34.6359025,29.4745924 35.279496,30.181175 35.9945999,30.6757829 C36.7097038,31.1703908 37.5678285,31.5943404 38.568974,31.8769735 C39.5701195,32.1596066 40.5712649,32.2302649 41.6439208,32.2302649 C42.3590247,32.2302649 43.145639,32.1596066 43.9322533,32.0182901 C44.790378,31.8769735 45.5054819,31.6649987 46.2205858,31.3117074 C46.9356897,30.958416 47.5077729,30.5344664 48.0083456,29.898542 C48.5089183,29.3332758 48.7234495,28.5560349 48.7234495,27.6374774 C48.7234495,26.6482616 48.437408,25.8710206 47.7938144,25.2350962 C47.1502209,24.5991718 46.2920962,24.1045639 45.2909507,23.6806143 C44.2898053,23.2566647 43.0741286,22.9033733 41.7869416,22.6207402 C40.4997545,22.3381072 39.1410571,21.9848158 37.8538701,21.6315245 C36.4951726,21.2782331 35.1364752,20.8542835 33.8492882,20.3596756 C32.5621011,19.8650677 31.3464245,19.2291433 30.345279,18.4519023 C29.3441335,17.6746614 28.4860088,16.6854456 27.8424153,15.5549133 C27.1988218,14.3537227 26.9127802,12.9405573 26.9127802,11.3154171 C26.9127802,9.47830213 27.3418426,7.85316194 28.1284569,6.43999655 C28.9150712,5.09748943 29.987727,3.89629885 31.2749141,2.97774135 C32.5621011,2.05918385 34.0638193,1.35260116 35.7085583,0.92865154 C37.3532973,0.504701924 38.9980363,0.292727116 40.6427753,0.292727116 C42.5735559,0.292727116 44.4328261,0.504701924 46.1490754,0.92865154 C47.9368352,1.35260116 49.5100638,2.05918385 50.8687613,2.97774135 C52.2274587,3.89629885 53.3001145,5.1681477 54.1582392,6.58131309 C54.9448535,8.06513674 55.3739159,9.83159348 55.3739159,11.9513416 L47.5792833,11.9513416 C47.5077729,10.8914675 47.2932417,9.97291002 46.8641793,9.26632732 C46.435117,8.55974463 45.9345443,7.99447847 45.2909507,7.57052886 C44.6473572,7.14657924 43.8607429,6.86394617 43.0741286,6.72262963 C42.2160039,6.58131309 41.2863688,6.43999655 40.2852234,6.43999655 C39.6416298,6.43999655 38.9980363,6.51065482 38.3544428,6.65197136 C37.7108493,6.7932879 37.1387662,7.0052627 36.566683,7.35855405 C36.0661103,7.7118454 35.5655376,8.13579501 35.279496,8.6304029 C34.921944,9.12501078 34.7789233,9.76093521 34.7789233,10.5381762 C34.7789233,11.2447589 34.921944,11.810025 35.2079856,12.2339746 C35.4940272,12.6579243 35.9945999,13.0818739 36.8527246,13.4351652 C37.6393389,13.7884566 38.7835052,14.2124062 40.213713,14.5656975 C41.6439208,14.9189889 43.503191,15.4135968 45.7915235,15.9788629 C46.5066274,16.1201794 47.4362625,16.3321543 48.6519391,16.6854456 C49.8676158,17.038737 51.0832924,17.6040031 52.2989691,18.3812441 C53.5146457,19.158485 54.5157912,20.2183591 55.4454263,21.4902079 C56.303551,22.7620568 56.7326133,24.4578552 56.7326133,26.506945 C56.7326133,28.2027435 56.3750614,29.6865672 55.7314678,31.1703908 C55.0878743,32.5835562 54.0867288,33.8554051 52.7995418,34.8446208 C51.5123548,35.9044949 49.9391262,36.6817358 48.0083456,37.247002 C46.077565,37.8122681 43.9322533,38.0949012 41.3578792,38.0949012 C39.3555883,38.0949012 37.3532973,37.8829264 35.4940272,37.3883185 C33.5632466,36.8937106 31.9185076,36.1164697 30.4167894,35.0565956 C28.9865816,33.9967216 27.7709049,32.6542145 26.9127802,31.0290743 C26.0546555,29.4039341 25.6255932,27.4961608 25.6971036,25.2350962 L33.4917362,25.2350962 C33.5632466,26.7189199 33.7777778,27.7787939 34.2068401,28.6266931 L34.2068401,28.6266931 L34.2068401,28.6266931 Z" id="Shape-Copy"></path>
            </g>
        </g>
    </g>
</svg>