<?xml version="1.0" encoding="UTF-8" standalone="no"?>
<svg width="230px" height="210px" viewBox="0 0 230 210" version="1.1" xmlns="http://www.w3.org/2000/svg" xmlns:xlink="http://www.w3.org/1999/xlink" xmlns:sketch="http://www.bohemiancoding.com/sketch/ns">
    <!-- Generator: Sketch 3.3 (11970) - http://www.bohemiancoding.com/sketch -->
    <title>Logo 003@1x</title>
    <desc>Created with Sketch.</desc>
    <defs></defs>
    <g id="Page-1" stroke="none" stroke-width="1" fill="none" fill-rule="evenodd" sketch:type="MSPage">
        <g id="FREE-FOR-ALL-01" sketch:type="MSArtboardGroup" transform="translate(-80.000000, -45.000000)">
            <g id="Logo-003@1x" sketch:type="MSLayerGroup" transform="translate(80.000000, 45.000000)">
                <g id="JSninjas" sketch:type="MSShapeGroup">
                    <g id="Logo-003">
                        <g id="Group">
                            <ellipse id="Oval" fill="#FFE600" cx="133.862434" cy="113.861272" rx="95.8941799" ry="95.6531792"></ellipse>
                            <g transform="translate(71.798942, 54.410405)" id="Shape" fill="#000000">
                                <path d="M41.7407407,51.1965318 C41.3756614,53.6242775 40.4021164,55.9306358 38.9417989,58.1156069 C37.4814815,60.300578 35.4126984,62 32.6137566,63.4566474 C29.8148148,64.9132948 26.1640212,65.6416185 21.5396825,65.6416185 C18.8624339,65.6416185 16.4285714,65.2774566 13.8730159,64.5491329 C11.4391534,63.8208092 9.24867725,62.7283237 7.3015873,61.150289 C5.35449735,59.5722543 3.77248677,57.6300578 2.67724868,55.2023121 C1.46031746,52.7745665 0.973544974,49.8612717 0.973544974,46.4624277 L0.973544974,41 L13.3862434,41 L13.3862434,43.7919075 C13.3862434,45.2485549 13.5079365,46.7052023 13.7513228,48.0404624 C13.994709,49.3757225 14.3597884,50.4682081 14.968254,51.3179191 C15.5767196,52.1676301 16.3068783,52.8959538 17.4021164,53.5028902 C18.3756614,53.9884393 19.7142857,54.2312139 21.4179894,54.2312139 C23.2433862,54.2312139 24.5820106,53.867052 25.6772487,53.2601156 C26.6507937,52.6531792 27.3809524,51.8034682 27.8677249,50.7109827 C28.3544974,49.7398844 28.5978836,48.5260116 28.5978836,47.433526 C28.7195767,46.2196532 28.7195767,45.1271676 28.7195767,44.0346821 L28.7195767,1.9132948 L42.4708995,1.9132948 L42.4708995,44.6416185 C42.3492063,46.4624277 42.1058201,48.7687861 41.7407407,51.1965318 L41.7407407,51.1965318 L41.7407407,51.1965318 Z"></path>
                                <path d="M58.4126984,48.7687861 C59.1428571,50.2254335 60.2380952,51.4393064 61.4550265,52.2890173 C62.6719577,53.1387283 64.1322751,53.867052 65.8359788,54.3526012 C67.5396825,54.8381503 69.2433862,54.9595376 71.0687831,54.9595376 C72.2857143,54.9595376 73.6243386,54.8381503 74.962963,54.5953757 C76.4232804,54.3526012 77.6402116,53.9884393 78.8571429,53.3815029 C80.0740741,52.7745665 81.047619,52.0462428 81.8994709,50.9537572 C82.7513228,49.982659 83.1164021,48.6473988 83.1164021,47.0693642 C83.1164021,45.3699422 82.6296296,44.0346821 81.5343915,42.9421965 C80.4391534,41.849711 78.978836,41 77.2751323,40.2716763 C75.5714286,39.5433526 73.5026455,38.9364162 71.3121693,38.4508671 C69.1216931,37.9653179 66.8095238,37.3583815 64.6190476,36.7514451 C62.3068783,36.1445087 59.994709,35.416185 57.8042328,34.566474 C55.6137566,33.716763 53.5449735,32.6242775 51.8412698,31.2890173 C50.1375661,29.9537572 48.6772487,28.2543353 47.5820106,26.3121387 C46.4867725,24.2485549 46,21.8208092 46,19.0289017 C46,15.8728324 46.7301587,13.0809249 48.0687831,10.6531792 C49.4074074,8.34682081 51.2328042,6.28323699 53.4232804,4.70520231 C55.6137566,3.12716763 58.1693122,1.9132948 60.968254,1.1849711 C63.7671958,0.456647399 66.5661376,0.0924855491 69.3650794,0.0924855491 C72.6507937,0.0924855491 75.8148148,0.456647399 78.7354497,1.1849711 C81.7777778,1.9132948 84.4550265,3.12716763 86.7671958,4.70520231 C89.0793651,6.28323699 90.9047619,8.46820809 92.3650794,10.8959538 C93.7037037,13.4450867 94.4338624,16.4797688 94.4338624,20.1213873 L81.1693122,20.1213873 C81.047619,18.300578 80.6825397,16.7225434 79.952381,15.5086705 C79.2222222,14.2947977 78.3703704,13.3236994 77.2751323,12.5953757 C76.1798942,11.867052 74.8412698,11.3815029 73.5026455,11.1387283 C72.042328,10.8959538 70.4603175,10.6531792 68.7566138,10.6531792 C67.6613757,10.6531792 66.5661376,10.7745665 65.4708995,11.017341 C64.3756614,11.2601156 63.4021164,11.6242775 62.4285714,12.2312139 C61.5767196,12.8381503 60.7248677,13.566474 60.2380952,14.416185 C59.6296296,15.265896 59.3862434,16.3583815 59.3862434,17.6936416 C59.3862434,18.9075145 59.6296296,19.8786127 60.1164021,20.6069364 C60.6031746,21.3352601 61.4550265,22.0635838 62.9153439,22.6705202 C64.2539683,23.2774566 66.2010582,24.0057803 68.6349206,24.6127168 C71.0687831,25.2196532 74.2328042,26.0693642 78.1269841,27.0404624 C79.3439153,27.283237 80.9259259,27.6473988 82.994709,28.2543353 C85.0634921,28.8612717 87.1322751,29.8323699 89.2010582,31.1676301 C91.2698413,32.5028902 92.973545,34.3236994 94.5555556,36.5086705 C96.015873,38.6936416 96.7460317,41.6069364 96.7460317,45.1271676 C96.7460317,48.0404624 96.1375661,50.5895954 95.042328,53.1387283 C93.9470899,55.566474 92.2433862,57.7514451 90.0529101,59.4508671 C87.8624339,61.2716763 85.1851852,62.6069364 81.8994709,63.5780347 C78.6137566,64.5491329 74.962963,65.0346821 70.5820106,65.0346821 C67.1746032,65.0346821 63.7671958,64.6705202 60.6031746,63.8208092 C57.3174603,62.9710983 54.5185185,61.6358382 51.962963,59.8150289 C49.5291005,57.9942197 47.4603175,55.6878613 46,52.8959538 C44.5396825,50.1040462 43.8095238,46.8265896 43.9312169,42.9421965 L57.1957672,42.9421965 C57.3174603,45.4913295 57.6825397,47.3121387 58.4126984,48.7687861 L58.4126984,48.7687861 L58.4126984,48.7687861 Z"></path>
                            </g>
                            <g>
                                <ellipse id="Oval" fill="#FFFFFF" cx="49.1640212" cy="49.5260116" rx="43.9312169" ry="43.8208092"></ellipse>
                                <path d="M49.1640212,98.2023121 C22.2698413,98.2023121 0.365079365,76.3526012 0.365079365,49.5260116 C0.365079365,22.699422 22.2698413,0.849710983 49.1640212,0.849710983 C76.0582011,0.849710983 97.962963,22.699422 97.962963,49.5260116 C97.962963,76.3526012 76.0582011,98.2023121 49.1640212,98.2023121 L49.1640212,98.2023121 L49.1640212,98.2023121 Z M49.1640212,10.5606936 C27.6243386,10.5606936 10.1005291,28.0404624 10.1005291,49.5260116 C10.1005291,71.0115607 27.6243386,88.4913295 49.1640212,88.4913295 C70.7037037,88.4913295 88.2275132,71.0115607 88.2275132,49.5260116 C88.2275132,28.0404624 70.7037037,10.5606936 49.1640212,10.5606936 L49.1640212,10.5606936 L49.1640212,10.5606936 Z" id="Shape" fill="#000000"></path>
                            </g>
                            <g transform="translate(21.904762, 24.277457)" id="Shape">
                                <path d="M0.243386243,25.6127168 C0.243386243,31.4393064 3.65079365,29.8612717 9.12698413,27.3121387 C9.97883598,29.4971098 11.1957672,31.4393064 12.6560847,33.017341 C9.61375661,36.416185 7.78835979,40.9075145 7.78835979,45.8843931 C7.78835979,56.6878613 16.1851852,42.2427746 27.015873,42.2427746 C37.8465608,42.2427746 46.8518519,56.6878613 46.8518519,45.8843931 C46.8518519,41.0289017 45.026455,36.5375723 41.984127,33.017341 C43.4444444,31.4393064 44.5396825,29.4971098 45.3915344,27.433526 C50.8677249,29.982659 54.2751323,31.1965318 54.2751323,25.6127168 C54.2751323,19.4219653 50.2592593,13.9595376 44.1746032,10.4393064 C40.7671958,4.61271676 34.4391534,0.728323699 27.2592593,0.728323699 C20.0793651,0.728323699 13.7513228,4.61271676 10.3439153,10.4393064 C4.13756614,13.9595376 0.243386243,19.4219653 0.243386243,25.6127168 L0.243386243,25.6127168 L0.243386243,25.6127168 Z" fill="#000000"></path>
                                <path d="M27.1375661,13.2312139 C22.8783069,13.2312139 18.8624339,12.7456647 15.2116402,11.8959538 C17.2804233,16.1445087 21.7830688,19.1791908 27.1375661,19.1791908 C32.3703704,19.1791908 36.994709,16.265896 39.0634921,11.8959538 C35.5343915,12.7456647 31.5185185,13.2312139 27.1375661,13.2312139 L27.1375661,13.2312139 L27.1375661,13.2312139 Z" fill="#FFFFFF"></path>
                                <path d="M31.7619048,15.5375723 C30.6666667,16.0231214 29.5714286,16.3872832 28.5978836,16.5086705 C29.5714286,17.3583815 31.031746,17.6011561 32.3703704,16.9942197 C33.7089947,16.3872832 34.5608466,15.1734104 34.5608466,13.8381503 C33.8306878,14.4450867 32.8571429,15.0520231 31.7619048,15.5375723 L31.7619048,15.5375723 L31.7619048,15.5375723 Z" fill="#000000"></path>
                                <path d="M22.8783069,15.5375723 C23.973545,16.0231214 25.0687831,16.3872832 26.042328,16.5086705 C25.0687831,17.3583815 23.6084656,17.6011561 22.2698413,16.9942197 C20.9312169,16.3872832 20.0793651,15.1734104 20.0793651,13.8381503 C20.8095238,14.566474 21.7830688,15.0520231 22.8783069,15.5375723 L22.8783069,15.5375723 L22.8783069,15.5375723 Z" fill="#000000"></path>
                            </g>
                            <g transform="translate(71.798942, 121.387283)" id="Shape" fill="#000000">
                                <path d="M8.51851852,11.5317919 L8.51851852,15.5375723 L8.64021164,15.5375723 C9.61375661,13.8381503 10.952381,12.6242775 12.5343915,11.8959538 C14.1164021,11.1676301 15.8201058,10.6820809 17.5238095,10.6820809 C19.7142857,10.6820809 21.4179894,10.9248555 22.7566138,11.5317919 C24.0952381,12.1387283 25.1904762,12.867052 26.042328,13.9595376 C26.7724868,15.0520231 27.3809524,16.265896 27.7460317,17.7225434 C28.1111111,19.1791908 28.2328042,20.8786127 28.2328042,22.699422 L28.2328042,40.5433526 L20.2010582,40.5433526 L20.2010582,24.2774566 C20.2010582,21.849711 19.8359788,20.0289017 19.1058201,18.9364162 C18.3756614,17.7225434 17.037037,17.1156069 15.0899471,17.1156069 C12.8994709,17.1156069 11.3174603,17.7225434 10.3439153,19.0578035 C9.37037037,20.3930636 8.88359788,22.4566474 8.88359788,25.4913295 L8.88359788,40.7861272 L0.851851852,40.7861272 L0.851851852,11.6531792 L8.51851852,11.6531792 L8.51851852,11.5317919 L8.51851852,11.5317919 Z"></path>
                                <path d="M31.7619048,7.04046243 L31.7619048,0.485549133 L39.7936508,0.485549133 L39.7936508,7.04046243 L31.7619048,7.04046243 L31.7619048,7.04046243 Z M39.7936508,11.5317919 L39.7936508,40.6647399 L31.7619048,40.6647399 L31.7619048,11.5317919 L39.7936508,11.5317919 L39.7936508,11.5317919 Z"></path>
                                <path d="M50.8677249,11.5317919 L50.8677249,15.5375723 L50.989418,15.5375723 C51.962963,13.8381503 53.3015873,12.6242775 54.8835979,11.8959538 C56.4656085,11.1676301 58.1693122,10.6820809 59.8730159,10.6820809 C62.0634921,10.6820809 63.7671958,10.9248555 65.1058201,11.5317919 C66.4444444,12.1387283 67.5396825,12.867052 68.3915344,13.9595376 C69.1216931,15.0520231 69.7301587,16.265896 70.0952381,17.7225434 C70.4603175,19.1791908 70.5820106,20.8786127 70.5820106,22.699422 L70.5820106,40.5433526 L62.5502646,40.5433526 L62.5502646,24.2774566 C62.5502646,21.849711 62.1851852,20.0289017 61.4550265,18.9364162 C60.7248677,17.7225434 59.3862434,17.1156069 57.4391534,17.1156069 C55.2486772,17.1156069 53.6666667,17.7225434 52.6931217,19.0578035 C51.7195767,20.3930636 51.2328042,22.4566474 51.2328042,25.4913295 L51.2328042,40.7861272 L43.2010582,40.7861272 L43.2010582,11.6531792 L50.8677249,11.6531792 L50.8677249,11.5317919 L50.8677249,11.5317919 Z"></path>
                                <path d="M71.5555556,44.3063584 C72.4074074,44.3063584 73.1375661,44.1849711 73.7460317,43.8208092 C74.3544974,43.4566474 74.7195767,42.849711 74.7195767,41.7572254 L74.7195767,11.6531792 L82.7513228,11.6531792 L82.7513228,42.1213873 C82.7513228,43.5780347 82.6296296,44.9132948 82.2645503,46.0057803 C81.8994709,47.0982659 81.4126984,47.9479769 80.6825397,48.6763006 C79.952381,49.4046243 78.8571429,49.8901734 77.5185185,50.2543353 C76.1798942,50.6184971 74.4761905,50.7398844 72.5291005,50.7398844 C71.5555556,50.7398844 70.7037037,50.6184971 69.973545,50.4971098 L69.973545,43.9421965 C70.2169312,44.1849711 70.8253968,44.3063584 71.5555556,44.3063584 L71.5555556,44.3063584 L71.5555556,44.3063584 Z M74.5978836,7.04046243 L74.5978836,0.485549133 L82.6296296,0.485549133 L82.6296296,7.04046243 L74.5978836,7.04046243 L74.5978836,7.04046243 Z"></path>
                                <path d="M86.4021164,20.5144509 C86.5238095,18.6936416 87.010582,17.1156069 87.8624339,15.9017341 C88.7142857,14.6878613 89.6878307,13.716763 91.026455,12.867052 C92.2433862,12.1387283 93.7037037,11.5317919 95.2857143,11.2890173 C96.8677249,10.9248555 98.4497354,10.8034682 100.153439,10.8034682 C101.613757,10.8034682 103.074074,10.9248555 104.656085,11.1676301 C106.116402,11.4104046 107.57672,11.7745665 108.793651,12.3815029 C110.010582,12.9884393 111.10582,13.8381503 111.835979,14.9306358 C112.566138,16.0231214 113.05291,17.3583815 113.05291,19.1791908 L113.05291,34.3526012 C113.05291,35.6878613 113.174603,36.9017341 113.296296,38.1156069 C113.417989,39.3294798 113.661376,40.1791908 114.026455,40.7861272 L105.873016,40.7861272 C105.751323,40.300578 105.62963,39.9364162 105.507937,39.4508671 C105.386243,38.9653179 105.386243,38.4797688 105.26455,37.9942197 C103.925926,39.3294798 102.465608,40.1791908 100.761905,40.7861272 C99.0582011,41.2716763 97.2328042,41.5144509 95.4074074,41.5144509 C94.0687831,41.5144509 92.7301587,41.3930636 91.5132275,41.0289017 C90.2962963,40.6647399 89.2010582,40.1791908 88.3492063,39.4508671 C87.4973545,38.7225434 86.7671958,37.8728324 86.2804233,36.7803468 C85.7936508,35.6878613 85.5502646,34.3526012 85.5502646,32.8959538 C85.5502646,31.1965318 85.7936508,29.8612717 86.4021164,28.7687861 C87.010582,27.6763006 87.7407407,26.8265896 88.7142857,26.2196532 C89.6878307,25.6127168 90.6613757,25.1271676 91.8783069,24.7630058 C93.0952381,24.3988439 94.3121693,24.1560694 95.4074074,24.0346821 C96.6243386,23.7919075 97.8412698,23.6705202 98.9365079,23.5491329 C100.153439,23.4277457 101.126984,23.3063584 101.978836,23.0635838 C102.830688,22.8208092 103.560847,22.4566474 104.169312,22.0924855 C104.656085,21.6069364 104.899471,21 104.899471,20.150289 C104.899471,19.300578 104.777778,18.5722543 104.534392,18.0867052 C104.291005,17.6011561 103.925926,17.2369942 103.439153,16.8728324 C102.952381,16.6300578 102.465608,16.3872832 101.857143,16.265896 C101.248677,16.1445087 100.518519,16.1445087 99.9100529,16.1445087 C98.3280423,16.1445087 97.1111111,16.5086705 96.1375661,17.1156069 C95.1640212,17.7225434 94.6772487,18.9364162 94.5555556,20.5144509 L86.4021164,20.5144509 L86.4021164,20.5144509 Z M104.899471,26.4624277 C104.534392,26.7052023 104.169312,26.9479769 103.68254,27.1907514 C103.195767,27.433526 102.587302,27.5549133 102.100529,27.5549133 C101.492063,27.6763006 100.883598,27.7976879 100.275132,27.7976879 C99.6666667,27.9190751 98.9365079,27.9190751 98.3280423,28.0404624 C97.7195767,28.1618497 97.1111111,28.283237 96.5026455,28.5260116 C95.8941799,28.7687861 95.4074074,29.0115607 94.9206349,29.2543353 C94.4338624,29.6184971 94.1904762,29.982659 93.8253968,30.4682081 C93.5820106,30.9537572 93.4603175,31.5606936 93.4603175,32.2890173 C93.4603175,33.017341 93.5820106,33.6242775 93.8253968,34.1098266 C94.0687831,34.5953757 94.4338624,34.9595376 94.9206349,35.3236994 C95.4074074,35.566474 95.8941799,35.8092486 96.5026455,35.9306358 C97.1111111,36.0520231 97.7195767,36.0520231 98.3280423,36.0520231 C99.9100529,36.0520231 101.126984,35.8092486 101.978836,35.3236994 C102.830688,34.8381503 103.439153,34.2312139 103.925926,33.3815029 C104.291005,32.6531792 104.534392,31.9248555 104.656085,31.1965318 C104.777778,30.4682081 104.777778,29.8612717 104.777778,29.3757225 L104.777778,26.4624277 L104.899471,26.4624277 L104.899471,26.4624277 Z"></path>
                                <path d="M123.031746,33.5028902 C123.396825,34.1098266 123.883598,34.5953757 124.37037,35.0809249 C124.978836,35.4450867 125.587302,35.8092486 126.31746,35.9306358 C127.047619,36.1734104 127.777778,36.1734104 128.62963,36.1734104 C129.238095,36.1734104 129.846561,36.0520231 130.455026,35.9306358 C131.063492,35.8092486 131.671958,35.566474 132.15873,35.3236994 C132.645503,35.0809249 133.132275,34.716763 133.375661,34.2312139 C133.740741,33.7456647 133.862434,33.1387283 133.862434,32.4104046 C133.862434,31.1965318 133.010582,30.3468208 131.428571,29.7398844 C129.846561,29.132948 127.656085,28.5260116 124.73545,27.9190751 C123.518519,27.6763006 122.42328,27.3121387 121.328042,26.9479769 C120.232804,26.583815 119.259259,26.0982659 118.407407,25.4913295 C117.555556,24.8843931 116.825397,24.1560694 116.338624,23.3063584 C115.851852,22.4566474 115.608466,21.3641618 115.608466,20.0289017 C115.608466,18.2080925 115.973545,16.6300578 116.703704,15.416185 C117.433862,14.2023121 118.407407,13.2312139 119.624339,12.6242775 C120.84127,11.8959538 122.179894,11.4104046 123.640212,11.1676301 C125.100529,10.9248555 126.68254,10.8034682 128.26455,10.8034682 C129.846561,10.8034682 131.428571,10.9248555 132.888889,11.2890173 C134.349206,11.5317919 135.687831,12.1387283 136.904762,12.867052 C138.121693,13.5953757 139.095238,14.566474 139.825397,15.6589595 C140.555556,16.8728324 141.042328,18.3294798 141.164021,20.150289 L133.497354,20.150289 C133.375661,18.5722543 132.767196,17.6011561 131.793651,16.9942197 C130.698413,16.5086705 129.481481,16.1445087 128.021164,16.1445087 C127.534392,16.1445087 127.047619,16.1445087 126.560847,16.265896 C126.074074,16.3872832 125.587302,16.3872832 125.100529,16.6300578 C124.613757,16.8728324 124.248677,17.1156069 124.005291,17.4797688 C123.761905,17.8439306 123.518519,18.3294798 123.518519,18.9364162 C123.518519,19.6647399 123.761905,20.2716763 124.248677,20.6358382 C124.73545,21.1213873 125.465608,21.4855491 126.31746,21.7283237 C127.169312,21.9710983 128.142857,22.2138728 129.238095,22.4566474 C130.333333,22.699422 131.428571,22.9421965 132.52381,23.1849711 C133.740741,23.4277457 134.835979,23.7919075 135.931217,24.1560694 C137.026455,24.5202312 138,25.0057803 138.851852,25.6127168 C139.703704,26.2196532 140.433862,26.9479769 140.920635,27.9190751 C141.407407,28.8901734 141.650794,29.982659 141.650794,31.3179191 C141.650794,33.2601156 141.285714,34.8381503 140.433862,36.1734104 C139.582011,37.5086705 138.608466,38.4797688 137.391534,39.3294798 C136.174603,40.1791908 134.714286,40.6647399 133.132275,41.0289017 C131.550265,41.3930636 129.968254,41.5144509 128.26455,41.5144509 C126.560847,41.5144509 124.857143,41.3930636 123.275132,41.0289017 C121.693122,40.6647399 120.232804,40.1791908 119.015873,39.3294798 C117.798942,38.6011561 116.703704,37.5086705 115.973545,36.1734104 C115.243386,34.8381503 114.756614,33.2601156 114.634921,31.3179191 L122.301587,31.3179191 C122.544974,32.0462428 122.666667,32.7745665 123.031746,33.5028902 L123.031746,33.5028902 L123.031746,33.5028902 Z"></path>
                            </g>
                        </g>
                    </g>
                </g>
            </g>
        </g>
    </g>
</svg>