<?xml version="1.0" encoding="UTF-8" standalone="no"?>
<svg width="45px" height="65px" viewBox="0 0 45 65" version="1.1" xmlns="http://www.w3.org/2000/svg" xmlns:xlink="http://www.w3.org/1999/xlink" xmlns:sketch="http://www.bohemiancoding.com/sketch/ns">
    <!-- Generator: Sketch 3.3 (11970) - http://www.bohemiancoding.com/sketch -->
    <title>Facebook_Places</title>
    <desc>Created with Sketch.</desc>
    <defs></defs>
    <g id="Page-1" stroke="none" stroke-width="1" fill="none" fill-rule="evenodd" sketch:type="MSPage">
        <g id="FREE-FOR-ALL-01" sketch:type="MSArtboardGroup" transform="translate(-698.000000, -3837.000000)" fill="#FFE600">
            <path d="M741.72036,3853.17788 C741.48899,3852.31073 741.019148,3851.38677 740.671565,3850.5778 C736.512356,3840.58222 727.42457,3837 720.086638,3837 C710.263487,3837 699.444434,3843.58685 698,3857.1639 L698,3859.93776 C698,3860.05352 698.039896,3861.0934 698.096568,3861.61357 C698.906285,3868.08405 704.011978,3874.96076 707.825116,3881.43124 C711.927503,3888.36371 716.184338,3895.18329 720.401729,3902 C723.002255,3897.55154 725.593411,3893.0446 728.134697,3888.71129 C728.827294,3887.43959 729.631269,3886.16865 730.324622,3884.95483 C730.786756,3884.14662 731.669617,3883.33842 732.072965,3882.58643 C736.1752,3875.07576 742.778221,3867.50706 742.778221,3860.05337 L742.778221,3856.99132 C742.778372,3856.18326 741.776728,3853.35212 741.72036,3853.17788 L741.72036,3853.17788 Z M720.266474,3867.10266 C717.378966,3867.10266 714.218377,3865.65883 712.658334,3861.67145 C712.425907,3861.03673 712.444646,3859.76473 712.444646,3859.64821 L712.444646,3857.8571 C712.444646,3852.77392 716.760721,3850.46235 720.515525,3850.46235 C725.138078,3850.46235 728.713196,3854.16063 728.713196,3858.78318 C728.713196,3863.40558 724.889027,3867.10266 720.266474,3867.10266 L720.266474,3867.10266 Z" id="Facebook_Places" sketch:type="MSShapeGroup"></path>
        </g>
    </g>
</svg>